# 3ds Max Wavefront OBJ Exporter v0.97b - (c)2007 guruware
# File Created: 06.05.2018 00:13:26

#
# object Pyramid
#

v  12.0877 175.8247 12.0877
v  -12.0877 175.8247 12.0877
v  -100.0000 0.0000 100.0000
v  100.0000 0.0000 100.0000
v  12.0877 175.8247 -12.0877
v  100.0000 0.0000 -100.0000
v  -12.0877 175.8247 -12.0877
v  -100.0000 0.0000 -100.0000
v  0.0000 0.0000 -0.0000
# 9 vertices

vn 0.4248 0.7994 0.4248
vn -0.4248 0.7994 0.4248
vn -0.6626 -0.3491 0.6626
vn 0.6626 -0.3491 0.6626
vn 0.4248 0.7994 -0.4248
vn 0.6626 -0.3491 -0.6626
vn -0.4248 0.7994 -0.4248
vn -0.6626 -0.3491 -0.6626
vn 0.0000 -1.0000 -0.0000
# 9 vertex normals

vt 0.5604 0.8791 0.0000
vt 0.4396 0.8791 0.0000
vt 0.0000 0.0000 0.0000
vt 1.0000 0.0000 0.0000
vt 0.0000 1.0000 0.0000
vt 0.5000 0.5000 0.0000
vt 1.0000 1.0000 0.0000
vt 0.5000 1.1209 0.0000
vt 0.3791 1.0000 0.0000
vt 0.5000 0.8791 0.0000
vt 0.6209 1.0000 0.0000
# 11 texture coords

o Pyramid
g Pyramid
s 4
f 1/1/1 2/2/2 3/3/3 4/4/4 
s 2
f 5/1/5 1/2/1 4/3/4 6/4/6 
s 16
f 7/1/7 5/2/5 6/3/6 8/4/8 
s 32
f 2/1/2 7/2/7 8/3/8 3/4/3 
s 8
f 3/5/3 9/6/9 4/7/4 
f 4/7/4 9/6/9 6/4/6 
f 6/4/6 9/6/9 8/3/8 
f 8/3/8 9/6/9 3/5/3 
s off
f 2/8/2 1/9/1 5/10/5 7/11/7 
# 5 polygons - 4 triangles

