# 3ds Max Wavefront OBJ Exporter v0.97b - (c)2007 guruware
# File Created: 05.05.2018 23:58:52

#
# object Tower
#

v  -3.7466 121.4524 -4.5753
v  -3.7466 121.4524 -4.9527
v  -3.4513 121.4524 -4.9527
v  -3.4513 121.4524 -4.5753
v  -3.7466 131.4524 -4.5753
v  -3.4513 131.4524 -4.5753
v  -3.4513 131.4524 -4.9527
v  -3.7466 131.4524 -4.9527
v  -1.9160 121.4524 3.8164
v  -1.9160 121.4524 -2.5718
v  1.4284 121.4524 -2.5718
v  1.4284 121.4524 3.8164
v  -1.9160 122.7774 3.8164
v  1.4284 122.7774 3.8164
v  1.4284 122.7774 -2.5718
v  -1.9160 122.7774 -2.5718
v  -4.5372 1.1804 4.9516
v  -4.5372 1.1804 -6.1136
v  6.1541 1.1804 -6.1136
v  6.1541 1.1804 4.9516
v  -4.5372 121.4523 4.9516
v  2.7691 121.4523 4.9516
v  2.7691 121.4523 -6.1136
v  -4.5372 121.4523 -6.1136
v  -4.5372 101.1804 4.9516
v  6.1541 118.0674 4.9516
v  6.1541 101.1804 4.9516
v  6.1541 101.1804 -6.1136
v  6.1541 118.0674 -6.1136
v  -4.5372 101.1804 -6.1136
# 30 vertices

vn -0.5774 -0.5774 0.5774
vn -0.5774 -0.5774 -0.5774
vn 0.5774 -0.5774 -0.5774
vn 0.5774 -0.5774 0.5774
vn -0.5774 0.5774 0.5774
vn 0.5774 0.5774 0.5774
vn 0.5774 0.5774 -0.5774
vn -0.5774 0.5774 -0.5774
vn 0.2971 0.7173 0.6303
vn 0.2971 0.7173 -0.6303
vn -0.7071 0.0000 0.7071
vn 0.7173 0.2971 0.6303
vn 0.7071 0.0000 0.7071
vn 0.7071 0.0000 -0.7071
vn 0.7173 0.2971 -0.6303
vn -0.7071 0.0000 -0.7071
# 16 vertex normals

vt 0.1390 0.0739 0.0000
vt 0.1049 0.0739 0.0000
vt 0.1049 0.1016 0.0000
vt 0.1390 0.1016 0.0000
vt 0.9232 0.0739 0.0000
vt 0.9232 0.1016 0.0000
vt 1.0000 0.1016 0.0000
vt 1.0000 0.0739 0.0000
vt 0.1390 0.9232 0.0000
vt 0.1049 0.9232 0.0000
vt 0.1049 1.0000 0.0000
vt 0.1390 1.0000 0.0000
vt 0.8974 0.2452 0.0000
vt 0.3201 0.2452 0.0000
vt 0.3201 0.5580 0.0000
vt 0.8974 0.5580 0.0000
vt 0.9232 0.2452 0.0000
vt 0.9232 0.5580 0.0000
vt 0.9334 0.5580 0.0000
vt 0.9334 0.2452 0.0000
vt 0.8974 0.9232 0.0000
vt 0.3201 0.9232 0.0000
vt 0.3201 0.9334 0.0000
vt 0.8974 0.9334 0.0000
vt 1.0000 -0.0000 0.0000
vt 0.0000 -0.0000 0.0000
vt 0.0000 1.0000 0.0000
vt 1.0000 1.0000 0.0000
vt 1.0000 0.0000 0.0000
vt 1.0000 0.6834 0.0000
vt 0.0000 0.6834 0.0000
vt 0.0000 0.0000 0.0000
vt 0.7676 0.0000 0.0000
vt 0.8973 1.0000 0.0000
vt 0.9232 0.6834 0.0000
vt 0.9232 0.0000 0.0000
vt 1.0000 0.7676 0.0000
vt 0.0000 0.7676 0.0000
vt 0.0000 0.8973 0.0000
vt 1.0000 0.8973 0.0000
vt 0.7676 1.0000 0.0000
vt 1.0000 0.9232 0.0000
vt 0.0000 0.9232 0.0000
vt -0.0000 1.0000 0.0000
vt -0.0000 -0.0000 0.0000
# 45 texture coords

o Tower
g Tower
s 2
f 1/1/1 2/2/2 3/3/3 4/4/4 
s 4
f 5/1/5 6/4/6 7/3/7 8/2/8 
s 8
f 1/5/1 4/6/4 6/7/6 5/8/5 
s 16
f 4/9/4 3/10/3 7/11/7 6/12/6 
s 32
f 3/6/3 2/5/2 8/8/8 7/7/7 
s 64
f 2/10/2 1/9/1 5/12/5 8/11/8 
s 2
f 9/13/1 10/14/2 11/15/3 12/16/4 
s 4
f 13/13/5 14/16/6 15/15/7 16/14/8 
s 8
f 9/17/1 12/18/4 14/19/6 13/20/5 
s 16
f 12/21/4 11/22/3 15/23/7 14/24/6 
s 32
f 11/18/3 10/17/2 16/20/8 15/19/7 
s 64
f 10/22/2 9/21/1 13/24/5 16/23/8 
s 1
f 17/25/1 18/26/2 19/27/3 20/28/4 
f 21/29/5 22/30/9 23/31/10 24/32/8 
s 2
f 25/33/11 26/34/12 22/35/9 21/36/5 
s 4
f 27/37/13 28/38/14 29/39/15 26/40/12 
s 2
f 28/41/14 30/33/16 29/34/15 
s 4
f 30/38/16 25/37/11 21/42/5 24/43/8 
s 8
f 22/42/9 26/40/12 29/39/15 23/43/10 
s 2
f 25/33/11 27/41/13 26/34/12 
f 30/33/16 24/36/8 23/35/10 29/34/15 
s off
f 25/37/11 30/38/16 18/26/2 17/25/1 
f 30/33/16 28/41/14 19/44/3 18/45/2 
f 28/38/14 27/37/13 20/25/4 19/26/3 
f 27/41/13 25/33/11 17/45/1 20/44/4 
# 23 polygons - 2 triangles

