# 3ds Max Wavefront OBJ Exporter v0.97b - (c)2007 guruware
# File Created: 06.05.2018 13:54:50

#
# object Tower_01
#

v  -6.9745 0.2732 6.8085
v  -6.9745 0.2732 -6.7801
v  7.0728 0.2732 -6.7801
v  7.0728 0.2732 6.8085
v  -5.9745 149.7802 5.8085
v  6.0728 149.7802 5.8085
v  6.0728 149.7802 -5.7801
v  -5.9745 149.7802 -5.7801
v  7.0728 120.8547 6.8085
v  7.0728 124.4609 6.8085
v  -6.9745 124.4609 6.8085
v  -6.9745 120.8547 6.8085
v  7.0728 120.8547 -6.7801
v  7.0728 124.4609 -6.7801
v  -6.9745 120.8547 -6.7801
v  -6.9745 124.4609 -6.7801
v  7.0728 144.4174 6.8085
v  7.0728 147.3987 6.8085
v  -6.9745 147.3987 6.8085
v  -6.9745 144.4174 6.8085
v  6.3657 143.3111 6.1014
v  6.3657 144.4174 6.1014
v  -6.2674 144.4174 6.1014
v  -6.2674 143.3111 6.1014
v  7.0728 139.7049 6.8085
v  7.0728 143.3111 6.8085
v  -6.9745 143.3111 6.8085
v  -6.9745 139.7049 6.8085
v  6.3657 138.5986 6.1014
v  6.3657 139.7049 6.1014
v  -6.2674 139.7049 6.1014
v  -6.2674 138.5986 6.1014
v  7.0728 134.9924 6.8085
v  7.0728 138.5986 6.8085
v  -6.9745 138.5986 6.8085
v  -6.9745 134.9924 6.8085
v  6.3657 133.8860 6.1014
v  6.3657 134.9924 6.1014
v  -6.2674 134.9924 6.1014
v  -6.2674 133.8860 6.1014
v  7.0728 130.2798 6.8085
v  7.0728 133.8860 6.8085
v  -6.9745 133.8860 6.8085
v  -6.9745 130.2798 6.8085
v  6.3657 129.1735 6.1014
v  6.3657 130.2798 6.1014
v  -6.2674 130.2798 6.1014
v  -6.2674 129.1735 6.1014
v  7.0728 125.5673 6.8085
v  7.0728 129.1735 6.8085
v  -6.9745 129.1735 6.8085
v  -6.9745 125.5673 6.8085
v  6.3657 124.4609 6.1014
v  6.3657 125.5673 6.1014
v  -6.2674 125.5673 6.1014
v  -6.2674 124.4609 6.1014
v  -6.9745 103.2545 6.8085
v  -6.9745 100.2732 6.8085
v  7.0728 100.2732 6.8085
v  7.0728 103.2545 6.8085
v  -6.2674 104.3608 6.1014
v  -6.2674 103.2545 6.1014
v  6.3657 103.2545 6.1014
v  6.3657 104.3608 6.1014
v  -6.9745 107.3420 6.8085
v  -6.9745 104.3608 6.8085
v  7.0728 104.3608 6.8085
v  7.0728 107.3420 6.8085
v  -6.9745 110.3233 6.8085
v  7.0728 110.3233 6.8085
v  -6.2674 111.4296 6.1014
v  -6.2674 110.3233 6.1014
v  6.3657 110.3233 6.1014
v  6.3657 111.4296 6.1014
v  -6.9745 115.0358 6.8085
v  -6.9745 111.4296 6.8085
v  7.0728 111.4296 6.8085
v  7.0728 115.0358 6.8085
v  -6.2674 116.1422 6.1014
v  -6.2674 115.0358 6.1014
v  6.3657 115.0358 6.1014
v  6.3657 116.1422 6.1014
v  -6.9745 119.7484 6.8085
v  -6.9745 116.1422 6.8085
v  7.0728 116.1422 6.8085
v  7.0728 119.7484 6.8085
v  -6.2674 120.8547 6.1014
v  -6.2674 119.7484 6.1014
v  6.3657 119.7484 6.1014
v  6.3657 120.8547 6.1014
v  7.0728 144.4174 -6.7801
v  7.0728 147.3987 -6.7801
v  6.3657 143.3111 -6.0730
v  6.3657 144.4174 -6.0730
v  7.0728 139.7049 -6.7801
v  7.0728 143.3111 -6.7801
v  6.3657 138.5986 -6.0730
v  6.3657 139.7049 -6.0730
v  7.0728 134.9924 -6.7801
v  7.0728 138.5986 -6.7801
v  6.3657 133.8860 -6.0730
v  6.3657 134.9924 -6.0730
v  7.0728 130.2798 -6.7801
v  7.0728 133.8860 -6.7801
v  6.3657 129.1735 -6.0730
v  6.3657 130.2798 -6.0730
v  7.0728 125.5673 -6.7801
v  7.0728 129.1735 -6.7801
v  6.3657 124.4609 -6.0730
v  6.3657 125.5673 -6.0730
v  7.0728 100.2732 -6.7801
v  7.0728 103.2545 -6.7801
v  6.3657 103.2545 -6.0730
v  6.3657 104.3608 -6.0730
v  7.0728 104.3608 -6.7801
v  7.0728 107.3420 -6.7801
v  7.0728 110.3233 -6.7801
v  6.3657 110.3233 -6.0730
v  6.3657 111.4296 -6.0730
v  7.0728 111.4296 -6.7801
v  7.0728 115.0358 -6.7801
v  6.3657 115.0358 -6.0730
v  6.3657 116.1422 -6.0730
v  7.0728 116.1422 -6.7801
v  7.0728 119.7484 -6.7801
v  6.3657 119.7484 -6.0730
v  6.3657 120.8547 -6.0730
v  -6.9745 144.4174 -6.7801
v  -6.9745 147.3987 -6.7801
v  -6.2674 143.3111 -6.0730
v  -6.2674 144.4174 -6.0730
v  -6.9745 139.7049 -6.7801
v  -6.9745 143.3111 -6.7801
v  -6.2674 138.5986 -6.0730
v  -6.2674 139.7049 -6.0730
v  -6.9745 134.9924 -6.7801
v  -6.9745 138.5986 -6.7801
v  -6.2674 133.8860 -6.0730
v  -6.2674 134.9924 -6.0730
v  -6.9745 130.2798 -6.7801
v  -6.9745 133.8860 -6.7801
v  -6.2674 129.1735 -6.0730
v  -6.2674 130.2798 -6.0730
v  -6.9745 125.5673 -6.7801
v  -6.9745 129.1735 -6.7801
v  -6.2674 124.4609 -6.0730
v  -6.2674 125.5673 -6.0730
v  -6.9745 100.2732 -6.7801
v  -6.9745 103.2545 -6.7801
v  -6.2674 103.2545 -6.0730
v  -6.2674 104.3608 -6.0730
v  -6.9745 104.3608 -6.7801
v  -6.9745 107.3420 -6.7801
v  -6.9745 110.3233 -6.7801
v  -6.2674 110.3233 -6.0730
v  -6.2674 111.4296 -6.0730
v  -6.9745 111.4296 -6.7801
v  -6.9745 115.0358 -6.7801
v  -6.2674 115.0358 -6.0730
v  -6.2674 116.1422 -6.0730
v  -6.9745 116.1422 -6.7801
v  -6.9745 119.7484 -6.7801
v  -6.2674 119.7484 -6.0730
v  -6.2674 120.8547 -6.0730
# 164 vertices

vn -0.5774 -0.5774 0.5774
vn -0.5774 -0.5774 -0.5774
vn 0.5774 -0.5774 -0.5774
vn 0.5774 -0.5774 0.5774
vn -0.4494 0.7720 0.4494
vn 0.4494 0.7720 0.4494
vn 0.4494 0.7720 -0.4494
vn -0.4494 0.7720 -0.4494
vn 0.5774 0.5774 0.5774
vn -0.5774 0.5774 0.5774
vn 0.5774 0.5774 -0.5774
vn -0.5774 0.5774 -0.5774
vn 0.6867 0.2385 0.6867
vn -0.6867 0.2385 0.6867
vn 0.3015 0.9045 0.3015
vn 0.3015 -0.9045 0.3015
vn -0.3015 -0.9045 0.3015
vn -0.3015 0.9045 0.3015
vn -0.7071 0.0000 0.7071
vn 0.7071 0.0000 0.7071
vn 0.6867 0.2385 -0.6867
vn 0.3015 0.9045 -0.3015
vn 0.3015 -0.9045 -0.3015
vn 0.7071 0.0000 -0.7071
vn -0.6867 0.2385 -0.6867
vn -0.3015 0.9045 -0.3015
vn -0.3015 -0.9045 -0.3015
vn -0.7071 0.0000 -0.7071
# 28 vertex normals

vt 0.0005 0.7398 0.0000
vt 0.0005 0.6194 0.0000
vt 0.1250 0.6194 0.0000
vt 0.1250 0.7398 0.0000
vt 0.6915 0.6960 0.0000
vt 0.7982 0.6960 0.0000
vt 0.7982 0.7987 0.0000
vt 0.6915 0.7987 0.0000
vt 0.3979 0.4975 0.0000
vt 0.3979 0.5295 0.0000
vt 0.2734 0.5295 0.0000
vt 0.2734 0.4975 0.0000
vt 0.6618 0.9653 0.0000
vt 0.6618 0.9973 0.0000
vt 0.5414 0.9973 0.0000
vt 0.5414 0.9653 0.0000
vt 0.5343 0.6535 0.0000
vt 0.5343 0.6854 0.0000
vt 0.4098 0.6854 0.0000
vt 0.4098 0.6535 0.0000
vt 0.9388 0.7739 0.0000
vt 0.9069 0.7739 0.0000
vt 0.9069 0.6535 0.0000
vt 0.9388 0.6535 0.0000
vt 0.1250 0.8971 0.0000
vt 0.1250 0.9235 0.0000
vt 0.0005 0.9235 0.0000
vt 0.0005 0.8971 0.0000
vt 0.9849 0.9701 0.0000
vt 0.9751 0.9701 0.0000
vt 0.9751 0.8581 0.0000
vt 0.9849 0.8581 0.0000
vt 0.5463 0.5295 0.0000
vt 0.5463 0.4975 0.0000
vt 0.6708 0.4975 0.0000
vt 0.6708 0.5295 0.0000
vt 0.9751 0.1125 0.0000
vt 0.9653 0.1125 0.0000
vt 0.9653 0.0005 0.0000
vt 0.9751 0.0005 0.0000
vt 0.6708 0.5316 0.0000
vt 0.6708 0.5636 0.0000
vt 0.5463 0.5636 0.0000
vt 0.5463 0.5316 0.0000
vt 0.3853 0.9897 0.0000
vt 0.3853 0.9995 0.0000
vt 0.2734 0.9995 0.0000
vt 0.2734 0.9897 0.0000
vt 0.2614 0.8971 0.0000
vt 0.2614 0.9291 0.0000
vt 0.1369 0.9291 0.0000
vt 0.1369 0.8971 0.0000
vt 0.9898 0.7264 0.0000
vt 0.9799 0.7264 0.0000
vt 0.9799 0.6145 0.0000
vt 0.9898 0.6145 0.0000
vt 0.8755 0.6318 0.0000
vt 0.8435 0.6318 0.0000
vt 0.8435 0.5073 0.0000
vt 0.8755 0.5073 0.0000
vt 0.9605 0.5023 0.0000
vt 0.9507 0.5023 0.0000
vt 0.9507 0.3903 0.0000
vt 0.9605 0.3903 0.0000
vt 0.0005 0.0005 0.0000
vt 0.0269 0.0005 0.0000
vt 0.0269 0.1250 0.0000
vt 0.0005 0.1250 0.0000
vt 0.9799 0.0005 0.0000
vt 0.9898 0.0005 0.0000
vt 0.9898 0.1125 0.0000
vt 0.9799 0.1125 0.0000
vt 0.2734 0.8017 0.0000
vt 0.2734 0.7753 0.0000
vt 0.3979 0.7753 0.0000
vt 0.3979 0.8017 0.0000
vt 0.2734 0.8281 0.0000
vt 0.3979 0.8281 0.0000
vt 0.9653 0.1321 0.0000
vt 0.9751 0.1321 0.0000
vt 0.9751 0.2440 0.0000
vt 0.9653 0.2440 0.0000
vt 0.0005 0.8950 0.0000
vt 0.0005 0.8630 0.0000
vt 0.1250 0.8630 0.0000
vt 0.1250 0.8950 0.0000
vt 0.9653 0.2636 0.0000
vt 0.9751 0.2636 0.0000
vt 0.9751 0.3756 0.0000
vt 0.9653 0.3756 0.0000
vt 0.2734 0.9875 0.0000
vt 0.2734 0.9556 0.0000
vt 0.3979 0.9556 0.0000
vt 0.3979 0.9875 0.0000
vt 0.8094 0.9995 0.0000
vt 0.8094 0.9897 0.0000
vt 0.9214 0.9897 0.0000
vt 0.9214 0.9995 0.0000
vt 0.9166 0.2685 0.0000
vt 0.9430 0.2685 0.0000
vt 0.9430 0.3889 0.0000
vt 0.9166 0.3889 0.0000
vt 0.5265 0.8282 0.0000
vt 0.5265 0.8380 0.0000
vt 0.4186 0.8380 0.0000
vt 0.4186 0.8282 0.0000
vt 0.8414 0.7642 0.0000
vt 0.8094 0.7642 0.0000
vt 0.8094 0.6437 0.0000
vt 0.8414 0.6437 0.0000
vt 0.9111 0.9212 0.0000
vt 0.9013 0.9212 0.0000
vt 0.9013 0.8133 0.0000
vt 0.9111 0.8133 0.0000
vt 0.2574 0.9653 0.0000
vt 0.2574 0.9973 0.0000
vt 0.1369 0.9973 0.0000
vt 0.1369 0.9653 0.0000
vt 0.7994 0.8282 0.0000
vt 0.7994 0.8380 0.0000
vt 0.6915 0.8380 0.0000
vt 0.6915 0.8282 0.0000
vt 0.6618 0.9312 0.0000
vt 0.6618 0.9632 0.0000
vt 0.5414 0.9632 0.0000
vt 0.5414 0.9312 0.0000
vt 0.6629 0.8282 0.0000
vt 0.6629 0.8380 0.0000
vt 0.5550 0.8380 0.0000
vt 0.5550 0.8282 0.0000
vt 0.9437 0.6521 0.0000
vt 0.9117 0.6521 0.0000
vt 0.9117 0.5316 0.0000
vt 0.9437 0.5316 0.0000
vt 0.6629 0.8179 0.0000
vt 0.6629 0.8277 0.0000
vt 0.5550 0.8277 0.0000
vt 0.5550 0.8179 0.0000
vt 0.9132 0.2476 0.0000
vt 0.8868 0.2476 0.0000
vt 0.8868 0.1272 0.0000
vt 0.9132 0.1272 0.0000
vt 0.5550 0.8482 0.0000
vt 0.5550 0.8384 0.0000
vt 0.6629 0.8384 0.0000
vt 0.6629 0.8482 0.0000
vt 0.9674 0.7363 0.0000
vt 0.9938 0.7363 0.0000
vt 0.9938 0.8567 0.0000
vt 0.9674 0.8567 0.0000
vt 0.9410 0.7363 0.0000
vt 0.9410 0.8567 0.0000
vt 0.6915 0.8277 0.0000
vt 0.6915 0.8179 0.0000
vt 0.7994 0.8179 0.0000
vt 0.7994 0.8277 0.0000
vt 0.4098 0.9973 0.0000
vt 0.4098 0.9653 0.0000
vt 0.5303 0.9653 0.0000
vt 0.5303 0.9973 0.0000
vt 0.9116 0.8133 0.0000
vt 0.9214 0.8133 0.0000
vt 0.9214 0.9212 0.0000
vt 0.9116 0.9212 0.0000
vt 0.6730 0.9973 0.0000
vt 0.6730 0.9653 0.0000
vt 0.7934 0.9653 0.0000
vt 0.7934 0.9973 0.0000
vt 0.8910 0.8133 0.0000
vt 0.9008 0.8133 0.0000
vt 0.9008 0.9212 0.0000
vt 0.8910 0.9212 0.0000
vt 0.9166 0.0005 0.0000
vt 0.9430 0.0005 0.0000
vt 0.9430 0.1250 0.0000
vt 0.9166 0.1250 0.0000
vt 0.9311 0.7753 0.0000
vt 0.9311 0.7851 0.0000
vt 0.8191 0.7851 0.0000
vt 0.8191 0.7753 0.0000
vt 0.4098 0.5295 0.0000
vt 0.4098 0.4975 0.0000
vt 0.5343 0.4975 0.0000
vt 0.5343 0.5295 0.0000
vt 0.9898 0.4974 0.0000
vt 0.9799 0.4974 0.0000
vt 0.9799 0.3855 0.0000
vt 0.9898 0.3855 0.0000
vt 0.6827 0.5295 0.0000
vt 0.6827 0.4975 0.0000
vt 0.8072 0.4975 0.0000
vt 0.8072 0.5295 0.0000
vt 0.9898 0.3756 0.0000
vt 0.9799 0.3756 0.0000
vt 0.9799 0.2636 0.0000
vt 0.9898 0.2636 0.0000
vt 0.8072 0.6535 0.0000
vt 0.8072 0.6854 0.0000
vt 0.6827 0.6854 0.0000
vt 0.6827 0.6535 0.0000
vt 0.9751 0.4974 0.0000
vt 0.9653 0.4974 0.0000
vt 0.9653 0.3855 0.0000
vt 0.9751 0.3855 0.0000
vt 0.8414 0.6318 0.0000
vt 0.8094 0.6318 0.0000
vt 0.8094 0.5073 0.0000
vt 0.8414 0.5073 0.0000
vt 0.9214 0.9605 0.0000
vt 0.9214 0.9703 0.0000
vt 0.8094 0.9703 0.0000
vt 0.8094 0.9605 0.0000
vt 0.0005 0.2490 0.0000
vt 0.0269 0.2490 0.0000
vt 0.0269 0.3735 0.0000
vt 0.0005 0.3735 0.0000
vt 0.8094 0.9556 0.0000
vt 0.8094 0.9458 0.0000
vt 0.9214 0.9458 0.0000
vt 0.9214 0.9556 0.0000
vt 0.0005 0.9723 0.0000
vt 0.0005 0.9458 0.0000
vt 0.1250 0.9458 0.0000
vt 0.1250 0.9723 0.0000
vt 0.0005 0.9987 0.0000
vt 0.1250 0.9987 0.0000
vt 0.8094 0.9410 0.0000
vt 0.8094 0.9312 0.0000
vt 0.9214 0.9312 0.0000
vt 0.9214 0.9410 0.0000
vt 0.1369 0.7731 0.0000
vt 0.1369 0.7412 0.0000
vt 0.2614 0.7412 0.0000
vt 0.2614 0.7731 0.0000
vt 0.9799 0.1321 0.0000
vt 0.9898 0.1321 0.0000
vt 0.9898 0.2440 0.0000
vt 0.9799 0.2440 0.0000
vt 0.2614 0.9312 0.0000
vt 0.2614 0.9632 0.0000
vt 0.1369 0.9632 0.0000
vt 0.1369 0.9312 0.0000
vt 0.8094 0.9849 0.0000
vt 0.8094 0.9751 0.0000
vt 0.9214 0.9751 0.0000
vt 0.9214 0.9849 0.0000
vt 0.9166 0.1369 0.0000
vt 0.9430 0.1369 0.0000
vt 0.9430 0.2574 0.0000
vt 0.9166 0.2574 0.0000
vt 0.6629 0.8487 0.0000
vt 0.6629 0.8585 0.0000
vt 0.5550 0.8585 0.0000
vt 0.5550 0.8487 0.0000
vt 0.8776 0.5073 0.0000
vt 0.9096 0.5073 0.0000
vt 0.9096 0.6277 0.0000
vt 0.8776 0.6277 0.0000
vt 0.8905 0.9212 0.0000
vt 0.8807 0.9212 0.0000
vt 0.8807 0.8133 0.0000
vt 0.8905 0.8133 0.0000
vt 0.5303 0.9312 0.0000
vt 0.5303 0.9632 0.0000
vt 0.4098 0.9632 0.0000
vt 0.4098 0.9312 0.0000
vt 0.7994 0.8384 0.0000
vt 0.7994 0.8482 0.0000
vt 0.6915 0.8482 0.0000
vt 0.6915 0.8384 0.0000
vt 0.7934 0.9312 0.0000
vt 0.7934 0.9632 0.0000
vt 0.6730 0.9632 0.0000
vt 0.6730 0.9312 0.0000
vt 0.5265 0.8487 0.0000
vt 0.5265 0.8585 0.0000
vt 0.4186 0.8585 0.0000
vt 0.4186 0.8487 0.0000
vt 0.9632 0.9883 0.0000
vt 0.9312 0.9883 0.0000
vt 0.9312 0.8679 0.0000
vt 0.9632 0.8679 0.0000
vt 0.7994 0.8487 0.0000
vt 0.7994 0.8585 0.0000
vt 0.6915 0.8585 0.0000
vt 0.6915 0.8487 0.0000
vt 0.0005 0.3757 0.0000
vt 0.0269 0.3757 0.0000
vt 0.0269 0.4961 0.0000
vt 0.0005 0.4961 0.0000
vt 0.4186 0.8277 0.0000
vt 0.4186 0.8179 0.0000
vt 0.5265 0.8179 0.0000
vt 0.5265 0.8277 0.0000
vt 0.8699 0.6437 0.0000
vt 0.8964 0.6437 0.0000
vt 0.8964 0.7642 0.0000
vt 0.8699 0.7642 0.0000
vt 0.8435 0.6437 0.0000
vt 0.8435 0.7642 0.0000
vt 0.4186 0.8482 0.0000
vt 0.4186 0.8384 0.0000
vt 0.5265 0.8384 0.0000
vt 0.5265 0.8482 0.0000
vt 0.9458 0.6047 0.0000
vt 0.9778 0.6047 0.0000
vt 0.9778 0.7252 0.0000
vt 0.9458 0.7252 0.0000
vt 0.2821 0.8520 0.0000
vt 0.2821 0.8422 0.0000
vt 0.3900 0.8422 0.0000
vt 0.3900 0.8520 0.0000
vt 0.9166 0.4001 0.0000
vt 0.9486 0.4001 0.0000
vt 0.9486 0.5205 0.0000
vt 0.9166 0.5205 0.0000
vt 0.2821 0.8623 0.0000
vt 0.2821 0.8525 0.0000
vt 0.3900 0.8525 0.0000
vt 0.3900 0.8623 0.0000
vt 0.2614 0.7398 0.0000
vt 0.1369 0.7398 0.0000
vt 0.1432 0.7335 0.0000
vt 0.2552 0.7335 0.0000
vt 0.1369 0.6194 0.0000
vt 0.1432 0.6256 0.0000
vt 0.2614 0.6194 0.0000
vt 0.2552 0.6256 0.0000
vt 0.1369 0.4975 0.0000
vt 0.2614 0.4975 0.0000
vt 0.2552 0.5038 0.0000
vt 0.1432 0.5038 0.0000
vt 0.2614 0.6180 0.0000
vt 0.2552 0.6117 0.0000
vt 0.1369 0.6180 0.0000
vt 0.1432 0.6117 0.0000
vt 0.3979 0.7739 0.0000
vt 0.2734 0.7739 0.0000
vt 0.2796 0.7676 0.0000
vt 0.3916 0.7676 0.0000
vt 0.2734 0.6535 0.0000
vt 0.2796 0.6597 0.0000
vt 0.3979 0.6535 0.0000
vt 0.3916 0.6597 0.0000
vt 0.2734 0.5316 0.0000
vt 0.3979 0.5316 0.0000
vt 0.3916 0.5379 0.0000
vt 0.2796 0.5379 0.0000
vt 0.3979 0.6521 0.0000
vt 0.3916 0.6458 0.0000
vt 0.2734 0.6521 0.0000
vt 0.2796 0.6458 0.0000
vt 0.8072 0.6521 0.0000
vt 0.6827 0.6521 0.0000
vt 0.6890 0.6458 0.0000
vt 0.8009 0.6458 0.0000
vt 0.6827 0.5316 0.0000
vt 0.6890 0.5379 0.0000
vt 0.8072 0.5316 0.0000
vt 0.8009 0.5379 0.0000
vt 0.5463 0.5658 0.0000
vt 0.6708 0.5658 0.0000
vt 0.6645 0.5720 0.0000
vt 0.5525 0.5720 0.0000
vt 0.6708 0.6862 0.0000
vt 0.6645 0.6799 0.0000
vt 0.5463 0.6862 0.0000
vt 0.5525 0.6799 0.0000
vt 0.6708 0.8080 0.0000
vt 0.5463 0.8080 0.0000
vt 0.5525 0.8017 0.0000
vt 0.6645 0.8017 0.0000
vt 0.5463 0.6876 0.0000
vt 0.5525 0.6938 0.0000
vt 0.6708 0.6876 0.0000
vt 0.6645 0.6938 0.0000
vt 0.4098 0.6876 0.0000
vt 0.5343 0.6876 0.0000
vt 0.5281 0.6938 0.0000
vt 0.4161 0.6938 0.0000
vt 0.5343 0.8080 0.0000
vt 0.5281 0.8017 0.0000
vt 0.4098 0.8080 0.0000
vt 0.4161 0.8017 0.0000
vt 0.5343 0.9298 0.0000
vt 0.4098 0.9298 0.0000
vt 0.4161 0.9236 0.0000
vt 0.5281 0.9236 0.0000
vt 0.4098 0.8094 0.0000
vt 0.4161 0.8157 0.0000
vt 0.5343 0.8094 0.0000
vt 0.5281 0.8157 0.0000
vt 0.2734 0.8338 0.0000
vt 0.3979 0.8338 0.0000
vt 0.3916 0.8400 0.0000
vt 0.2796 0.8400 0.0000
vt 0.3979 0.9542 0.0000
vt 0.3916 0.9479 0.0000
vt 0.2734 0.9542 0.0000
vt 0.2796 0.9479 0.0000
vt 0.5463 0.8094 0.0000
vt 0.6708 0.8094 0.0000
vt 0.6645 0.8157 0.0000
vt 0.5525 0.8157 0.0000
vt 0.6708 0.9298 0.0000
vt 0.6645 0.9236 0.0000
vt 0.5463 0.9298 0.0000
vt 0.5525 0.9236 0.0000
vt 0.8072 0.8080 0.0000
vt 0.6827 0.8080 0.0000
vt 0.6890 0.8017 0.0000
vt 0.8009 0.8017 0.0000
vt 0.6827 0.6876 0.0000
vt 0.6890 0.6938 0.0000
vt 0.8072 0.6876 0.0000
vt 0.8009 0.6938 0.0000
vt 0.9298 0.8045 0.0000
vt 0.9298 0.9290 0.0000
vt 0.9236 0.9228 0.0000
vt 0.9236 0.8108 0.0000
vt 0.8094 0.9290 0.0000
vt 0.8157 0.9228 0.0000
vt 0.8094 0.8045 0.0000
vt 0.8157 0.8108 0.0000
vt 0.2614 0.8957 0.0000
vt 0.1369 0.8957 0.0000
vt 0.1432 0.8895 0.0000
vt 0.2552 0.8895 0.0000
vt 0.1369 0.7753 0.0000
vt 0.1432 0.7816 0.0000
vt 0.2614 0.7753 0.0000
vt 0.2552 0.7816 0.0000
vt 0.0005 0.7412 0.0000
vt 0.1250 0.7412 0.0000
vt 0.1187 0.7474 0.0000
vt 0.0068 0.7474 0.0000
vt 0.1250 0.8616 0.0000
vt 0.1187 0.8553 0.0000
vt 0.0005 0.8616 0.0000
vt 0.0068 0.8553 0.0000
vt 0.1250 0.6180 0.0000
vt 0.0005 0.6180 0.0000
vt 0.0068 0.6117 0.0000
vt 0.1187 0.6117 0.0000
vt 0.0005 0.4975 0.0000
vt 0.0068 0.5038 0.0000
vt 0.1250 0.4975 0.0000
vt 0.1187 0.5038 0.0000
vt 0.4098 0.5316 0.0000
vt 0.5343 0.5316 0.0000
vt 0.5281 0.5379 0.0000
vt 0.4161 0.5379 0.0000
vt 0.5343 0.6521 0.0000
vt 0.5281 0.6458 0.0000
vt 0.4098 0.6521 0.0000
vt 0.4161 0.6458 0.0000
vt 0.8072 0.9298 0.0000
vt 0.6827 0.9298 0.0000
vt 0.6890 0.9236 0.0000
vt 0.8009 0.9236 0.0000
vt 0.6827 0.8094 0.0000
vt 0.6890 0.8157 0.0000
vt 0.8072 0.8094 0.0000
vt 0.8009 0.8157 0.0000
vt 0.1161 0.9446 0.0000
vt 0.0094 0.9446 0.0000
vt 0.9641 0.2774 0.0000
vt 0.9641 0.3801 0.0000
vt 0.9641 0.0094 0.0000
vt 0.9641 0.1161 0.0000
vt 0.9641 0.1458 0.0000
vt 0.9641 0.2485 0.0000
vt 0.9132 0.3757 0.0000
vt 0.9132 0.4961 0.0000
vt 0.9132 0.2490 0.0000
vt 0.9132 0.3735 0.0000
vt 0.0005 0.2476 0.0000
vt 0.0005 0.1272 0.0000
vt 0.9132 0.0005 0.0000
vt 0.9132 0.1250 0.0000
# 480 texture coords

o Tower_01
g Tower_01
s 2
f 1/1/1 2/2/2 3/3/3 4/4/4 
s 4
f 5/5/5 6/6/6 7/7/7 8/8/8 
s 8
f 9/9/4 10/10/9 11/11/10 12/12/1 
s 16
f 13/13/3 14/14/11 10/15/9 9/16/4 
s 32
f 15/17/2 16/18/12 14/19/11 13/20/3 
s 64
f 12/21/1 11/22/10 16/23/12 15/24/2 
s 8
f 17/25/4 18/26/13 19/27/14 20/28/1 
f 21/29/15 22/30/16 23/31/17 24/32/18 
f 25/33/4 26/34/9 27/35/10 28/36/1 
f 29/37/15 30/38/16 31/39/17 32/40/18 
f 33/41/4 34/42/9 35/43/10 36/44/1 
f 37/45/15 38/46/16 39/47/17 40/48/18 
f 41/49/4 42/50/9 43/51/10 44/52/1 
f 45/53/15 46/54/16 47/55/17 48/56/18 
f 49/57/4 50/58/9 51/59/10 52/60/1 
f 53/61/15 54/62/16 55/63/17 56/64/18 
f 57/65/10 58/66/19 59/67/20 60/68/9 
f 61/69/17 62/70/18 63/71/15 64/72/16 
f 65/73/19 66/74/1 67/75/4 68/76/20 
f 69/77/10 65/73/19 68/76/20 70/78/9 
f 71/79/17 72/80/18 73/81/15 74/82/16 
f 75/83/10 76/84/1 77/85/4 78/86/9 
f 79/87/17 80/88/18 81/89/15 82/90/16 
f 83/91/10 84/92/1 85/93/4 86/94/9 
f 87/95/17 88/96/18 89/97/15 90/98/16 
s 16
f 91/99/3 92/100/21 18/101/13 17/102/4 
f 93/103/22 94/104/23 22/105/16 21/106/15 
f 95/107/3 96/108/11 26/109/9 25/110/4 
f 97/111/22 98/112/23 30/113/16 29/114/15 
f 99/115/3 100/116/11 34/117/9 33/118/4 
f 101/119/22 102/120/23 38/121/16 37/122/15 
f 103/123/3 104/124/11 42/125/9 41/126/4 
f 105/127/22 106/128/23 46/129/16 45/130/15 
f 107/131/3 108/132/11 50/133/9 49/134/4 
f 109/135/22 110/136/23 54/137/16 53/138/15 
f 60/139/9 59/140/20 111/141/24 112/142/11 
f 64/143/16 63/144/15 113/145/22 114/146/23 
f 68/147/20 67/148/4 115/149/3 116/150/24 
f 70/151/9 68/147/20 116/150/24 117/152/11 
f 74/153/16 73/154/15 118/155/22 119/156/23 
f 78/157/9 77/158/4 120/159/3 121/160/11 
f 82/161/16 81/162/15 122/163/22 123/164/23 
f 86/165/9 85/166/4 124/167/3 125/168/11 
f 90/169/16 89/170/15 126/171/22 127/172/23 
s 32
f 128/173/2 129/174/25 92/175/21 91/176/3 
f 130/177/26 131/178/27 94/179/23 93/180/22 
f 132/181/2 133/182/12 96/183/11 95/184/3 
f 134/185/26 135/186/27 98/187/23 97/188/22 
f 136/189/2 137/190/12 100/191/11 99/192/3 
f 138/193/26 139/194/27 102/195/23 101/196/22 
f 140/197/2 141/198/12 104/199/11 103/200/3 
f 142/201/26 143/202/27 106/203/23 105/204/22 
f 144/205/2 145/206/12 108/207/11 107/208/3 
f 146/209/26 147/210/27 110/211/23 109/212/22 
f 112/213/11 111/214/24 148/215/28 149/216/12 
f 114/217/23 113/218/22 150/219/26 151/220/27 
f 116/221/24 115/222/3 152/223/2 153/224/28 
f 117/225/11 116/221/24 153/224/28 154/226/12 
f 119/227/23 118/228/22 155/229/26 156/230/27 
f 121/231/11 120/232/3 157/233/2 158/234/12 
f 123/235/23 122/236/22 159/237/26 160/238/27 
f 125/239/11 124/240/3 161/241/2 162/242/12 
f 127/243/23 126/244/22 163/245/26 164/246/27 
s 64
f 20/247/1 19/248/14 129/249/25 128/250/2 
f 24/251/18 23/252/17 131/253/27 130/254/26 
f 28/255/1 27/256/10 133/257/12 132/258/2 
f 32/259/18 31/260/17 135/261/27 134/262/26 
f 36/263/1 35/264/10 137/265/12 136/266/2 
f 40/267/18 39/268/17 139/269/27 138/270/26 
f 44/271/1 43/272/10 141/273/12 140/274/2 
f 48/275/18 47/276/17 143/277/27 142/278/26 
f 52/279/1 51/280/10 145/281/12 144/282/2 
f 56/283/18 55/284/17 147/285/27 146/286/26 
f 149/287/12 148/288/28 58/289/19 57/290/10 
f 151/291/27 150/292/26 62/293/18 61/294/17 
f 153/295/28 152/296/2 66/297/1 65/298/19 
f 154/299/12 153/295/28 65/298/19 69/300/10 
f 156/301/27 155/302/26 72/303/18 71/304/17 
f 158/305/12 157/306/2 76/307/1 75/308/10 
f 160/309/27 159/310/26 80/311/18 79/312/17 
f 162/313/12 161/314/2 84/315/1 83/316/10 
f 164/317/27 163/318/26 88/319/18 87/320/17 
s off
f 17/321/4 20/322/1 23/323/17 22/324/16 
f 20/322/1 128/325/2 131/326/27 23/323/17 
f 128/325/2 91/327/3 94/328/23 131/326/27 
f 91/327/3 17/321/4 22/324/16 94/328/23 
f 27/329/10 26/330/9 21/331/15 24/332/18 
f 26/330/9 96/333/11 93/334/22 21/331/15 
f 96/333/11 133/335/12 130/336/26 93/334/22 
f 133/335/12 27/329/10 24/332/18 130/336/26 
f 25/337/4 28/338/1 31/339/17 30/340/16 
f 28/338/1 132/341/2 135/342/27 31/339/17 
f 132/341/2 95/343/3 98/344/23 135/342/27 
f 95/343/3 25/337/4 30/340/16 98/344/23 
f 35/345/10 34/346/9 29/347/15 32/348/18 
f 34/346/9 100/349/11 97/350/22 29/347/15 
f 100/349/11 137/351/12 134/352/26 97/350/22 
f 137/351/12 35/345/10 32/348/18 134/352/26 
f 33/353/4 36/354/1 39/355/17 38/356/16 
f 36/354/1 136/357/2 139/358/27 39/355/17 
f 136/357/2 99/359/3 102/360/23 139/358/27 
f 99/359/3 33/353/4 38/356/16 102/360/23 
f 43/361/10 42/362/9 37/363/15 40/364/18 
f 42/362/9 104/365/11 101/366/22 37/363/15 
f 104/365/11 141/367/12 138/368/26 101/366/22 
f 141/367/12 43/361/10 40/364/18 138/368/26 
f 41/369/4 44/370/1 47/371/17 46/372/16 
f 44/370/1 140/373/2 143/374/27 47/371/17 
f 140/373/2 103/375/3 106/376/23 143/374/27 
f 103/375/3 41/369/4 46/372/16 106/376/23 
f 51/377/10 50/378/9 45/379/15 48/380/18 
f 50/378/9 108/381/11 105/382/22 45/379/15 
f 108/381/11 145/383/12 142/384/26 105/382/22 
f 145/383/12 51/377/10 48/380/18 142/384/26 
f 49/385/4 52/386/1 55/387/17 54/388/16 
f 52/386/1 144/389/2 147/390/27 55/387/17 
f 144/389/2 107/391/3 110/392/23 147/390/27 
f 107/391/3 49/385/4 54/388/16 110/392/23 
f 11/393/10 10/394/9 53/395/15 56/396/18 
f 10/394/9 14/397/11 109/398/22 53/395/15 
f 14/397/11 16/399/12 146/400/26 109/398/22 
f 16/399/12 11/393/10 56/396/18 146/400/26 
f 57/401/10 60/402/9 63/403/15 62/404/18 
f 60/402/9 112/405/11 113/406/22 63/403/15 
f 112/405/11 149/407/12 150/408/26 113/406/22 
f 149/407/12 57/401/10 62/404/18 150/408/26 
f 67/409/4 66/410/1 61/411/17 64/412/16 
f 66/410/1 152/413/2 151/414/27 61/411/17 
f 152/413/2 115/415/3 114/416/23 151/414/27 
f 115/415/3 67/409/4 64/412/16 114/416/23 
f 69/417/10 70/418/9 73/419/15 72/420/18 
f 70/418/9 117/421/11 118/422/22 73/419/15 
f 117/421/11 154/423/12 155/424/26 118/422/22 
f 154/423/12 69/417/10 72/420/18 155/424/26 
f 77/425/4 76/426/1 71/427/17 74/428/16 
f 76/426/1 157/429/2 156/430/27 71/427/17 
f 157/429/2 120/431/3 119/432/23 156/430/27 
f 120/431/3 77/425/4 74/428/16 119/432/23 
f 75/433/10 78/434/9 81/435/15 80/436/18 
f 78/434/9 121/437/11 122/438/22 81/435/15 
f 121/437/11 158/439/12 159/440/26 122/438/22 
f 158/439/12 75/433/10 80/436/18 159/440/26 
f 85/441/4 84/442/1 79/443/17 82/444/16 
f 84/442/1 161/445/2 160/446/27 79/443/17 
f 161/445/2 124/447/3 123/448/23 160/446/27 
f 124/447/3 85/441/4 82/444/16 123/448/23 
f 83/449/10 86/450/9 89/451/15 88/452/18 
f 86/450/9 125/453/11 126/454/22 89/451/15 
f 125/453/11 162/455/12 163/456/26 126/454/22 
f 162/455/12 83/449/10 88/452/18 163/456/26 
f 9/457/4 12/458/1 87/459/17 90/460/16 
f 12/458/1 15/461/2 164/462/27 87/459/17 
f 15/461/2 13/463/3 127/464/23 164/462/27 
f 13/463/3 9/457/4 90/460/16 127/464/23 
f 19/27/14 18/26/13 6/465/6 5/466/5 
f 18/101/13 92/100/21 7/467/7 6/468/6 
f 92/175/21 129/174/25 8/469/8 7/470/7 
f 129/249/25 19/248/14 5/471/5 8/472/8 
f 58/289/19 148/288/28 2/473/2 1/474/1 
f 148/215/28 111/214/24 3/475/3 2/476/2 
f 111/141/24 59/140/20 4/477/4 3/478/3 
f 59/67/20 58/66/19 1/479/1 4/480/4 
# 162 polygons

